<svg xmlns="http://www.w3.org/2000/svg" viewBox="0 0 1024 1024" fill="#34d399">
  <path d="M 885.0 434.0 L 878.0 433.0 L 872.0 436.0 L 815.0 494.0 L 775.0 522.0 L 752.0 533.0 L 730.0 541.0 L 648.0 562.0 L 610.0 576.0 L 596.0 583.0 L 570.0 600.0 L 550.0 619.0 L 534.0 641.0 L 523.0 664.0 L 516.0 694.0 L 516.0 920.0 L 519.0 925.0 L 522.0 926.0 L 523.0 924.0 L 530.0 922.0 L 533.0 919.0 L 536.0 920.0 L 541.0 918.0 L 549.0 918.0 L 580.0 901.0 L 601.0 884.0 L 625.0 857.0 L 639.0 834.0 L 649.0 808.0 L 654.0 783.0 L 654.0 724.0 L 656.0 718.0 L 661.0 713.0 L 684.0 704.0 L 746.0 692.0 L 769.0 686.0 L 796.0 676.0 L 825.0 659.0 L 845.0 640.0 L 862.0 616.0 L 875.0 588.0 L 886.0 547.0 L 889.0 528.0 L 889.0 441.0 Z" />
  <path d="M 962.0 146.0 L 953.0 135.0 L 937.0 128.0 L 778.0 129.0 L 766.0 130.0 L 752.0 135.0 L 708.0 178.0 L 704.0 184.0 L 702.0 190.0 L 702.0 217.0 L 708.0 234.0 L 715.0 241.0 L 724.0 246.0 L 732.0 248.0 L 768.0 248.0 L 650.0 361.0 L 627.0 378.0 L 600.0 392.0 L 577.0 400.0 L 559.0 404.0 L 532.0 406.0 L 493.0 405.0 L 368.0 408.0 L 347.0 412.0 L 324.0 420.0 L 305.0 430.0 L 286.0 444.0 L 271.0 460.0 L 255.0 485.0 L 246.0 508.0 L 242.0 527.0 L 251.0 555.0 L 258.0 560.0 L 567.0 560.0 L 615.0 554.0 L 640.0 547.0 L 663.0 538.0 L 692.0 523.0 L 721.0 503.0 L 755.0 473.0 L 781.0 447.0 L 878.0 342.0 L 880.0 375.0 L 884.0 384.0 L 892.0 393.0 L 905.0 400.0 L 918.0 402.0 L 931.0 400.0 L 943.0 395.0 L 954.0 384.0 L 965.0 351.0 L 965.0 157.0 Z" />
  <path d="M 627.0 95.0 L 591.0 87.0 L 531.0 80.0 L 462.0 81.0 L 428.0 85.0 L 386.0 94.0 L 342.0 108.0 L 313.0 120.0 L 271.0 142.0 L 237.0 164.0 L 204.0 190.0 L 164.0 229.0 L 135.0 264.0 L 118.0 289.0 L 101.0 318.0 L 83.0 356.0 L 73.0 383.0 L 62.0 421.0 L 54.0 462.0 L 50.0 503.0 L 52.0 560.0 L 57.0 597.0 L 66.0 637.0 L 82.0 686.0 L 96.0 718.0 L 116.0 755.0 L 141.0 792.0 L 168.0 824.0 L 196.0 851.0 L 220.0 870.0 L 248.0 888.0 L 286.0 907.0 L 313.0 917.0 L 316.0 917.0 L 314.0 917.0 L 314.0 915.0 L 321.0 917.0 L 318.0 918.0 L 321.0 919.0 L 327.0 918.0 L 335.0 921.0 L 339.0 921.0 L 336.0 920.0 L 340.0 919.0 L 364.0 925.0 L 399.0 930.0 L 428.0 932.0 L 457.0 931.0 L 458.0 932.0 L 456.0 933.0 L 462.0 933.0 L 470.0 925.0 L 473.0 918.0 L 473.0 794.0 L 471.0 789.0 L 463.0 784.0 L 430.0 782.0 L 391.0 775.0 L 363.0 766.0 L 340.0 755.0 L 307.0 733.0 L 293.0 721.0 L 272.0 700.0 L 254.0 677.0 L 238.0 650.0 L 224.0 618.0 L 215.0 586.0 L 209.0 545.0 L 209.0 508.0 L 213.0 477.0 L 223.0 439.0 L 230.0 421.0 L 244.0 392.0 L 256.0 372.0 L 283.0 337.0 L 304.0 316.0 L 338.0 289.0 L 383.0 264.0 L 416.0 252.0 L 455.0 244.0 L 505.0 241.0 L 598.0 242.0 L 610.0 238.0 L 619.0 232.0 L 693.0 157.0 L 695.0 148.0 L 695.0 126.0 L 690.0 120.0 L 657.0 105.0 Z" />
</svg>
